<svg width="10" height="16" viewBox="0 0 10 16" fill="none" xmlns="http://www.w3.org/2000/svg">
<path d="M9.77457 0.449553C9.77457 0.331717 9.72776 0.218708 9.64443 0.135386C9.56111 0.0520641 9.4481 0.00525411 9.33027 0.00525411H7.10878C5.99014 -0.050469 4.89492 0.338826 4.06242 1.08808C3.22991 1.83733 2.7278 2.88564 2.66579 4.00394V6.40315H0.444298C0.326463 6.40315 0.213454 6.44996 0.130132 6.53329C0.04681 6.61661 0 6.72962 0 6.84745V9.1578C0 9.27564 0.04681 9.38865 0.130132 9.47197C0.213454 9.55529 0.326463 9.6021 0.444298 9.6021H2.66579V15.5557C2.66579 15.6735 2.7126 15.7865 2.79592 15.8699C2.87924 15.9532 2.99225 16 3.11009 16H5.77588C5.89372 16 6.00672 15.9532 6.09005 15.8699C6.17337 15.7865 6.22018 15.6735 6.22018 15.5557V9.6021H8.5483C8.64711 9.60352 8.74356 9.57196 8.82242 9.51242C8.90128 9.45287 8.95803 9.36874 8.98372 9.27332L9.6235 6.96297C9.64118 6.89732 9.64356 6.82849 9.63045 6.76178C9.61734 6.69507 9.5891 6.63226 9.5479 6.57818C9.50669 6.5241 9.45363 6.4802 9.39279 6.44986C9.33195 6.41951 9.26496 6.40353 9.19698 6.40315H6.22018V4.00394C6.24228 3.78399 6.34557 3.58018 6.50988 3.4323C6.67419 3.28442 6.88772 3.2031 7.10878 3.2042H9.33027C9.4481 3.2042 9.56111 3.15739 9.64443 3.07407C9.72776 2.99075 9.77457 2.87774 9.77457 2.7599V0.449553Z" fill="white"/>
</svg>
