<svg width="22" height="22" viewBox="0 0 22 22" fill="none" xmlns="http://www.w3.org/2000/svg">
<path d="M3.66663 5.5H4.88885V6.72222H3.66663V5.5Z" fill="#0B3E5D"/>
<path d="M6.11108 5.5H14.6666V6.72222H6.11108V5.5Z" fill="#0B3E5D"/>
<path d="M3.66663 10.3889H4.88885V11.6111H3.66663V10.3889Z" fill="#0B3E5D"/>
<path d="M6.11108 10.3889H14.6666V11.6111H6.11108V10.3889Z" fill="#0B3E5D"/>
<path d="M19.5555 3.05554H2.44439C2.12024 3.05554 1.80936 3.18431 1.58015 3.41352C1.35094 3.64273 1.22217 3.95361 1.22217 4.27776V17.7222C1.22217 18.0464 1.35094 18.3572 1.58015 18.5864C1.80936 18.8157 2.12024 18.9444 2.44439 18.9444H19.5555C19.8797 18.9444 20.1905 18.8157 20.4197 18.5864C20.649 18.3572 20.7777 18.0464 20.7777 17.7222V4.27776C20.7777 3.95361 20.649 3.64273 20.4197 3.41352C20.1905 3.18431 19.8797 3.05554 19.5555 3.05554V3.05554ZM2.44439 4.27776H19.5555V7.94443H2.44439V4.27776ZM2.44439 9.16665H19.5555V12.8333H2.44439V9.16665ZM2.44439 17.7222V14.0555H19.5555V17.7222H2.44439Z" fill="#0B3E5D"/>
<path d="M3.66663 15.2778H4.88885V16.5H3.66663V15.2778Z" fill="#0B3E5D"/>
<path d="M6.11108 15.2778H14.6666V16.5H6.11108V15.2778Z" fill="#0B3E5D"/>
</svg>
