<svg width="16" height="17" viewBox="0 0 16 17" fill="none" xmlns="http://www.w3.org/2000/svg">
<g clip-path="url(#clip0_61_978)">
<path d="M0 8.26C0 3.801 3.493 0.5 8 0.5C12.507 0.5 16 3.801 16 8.26C16 12.719 12.507 16.02 8 16.02C7.19 16.02 6.414 15.913 5.684 15.713C5.54245 15.6736 5.39165 15.6842 5.257 15.743L3.669 16.445C3.57309 16.4873 3.46826 16.5054 3.36372 16.4977C3.25918 16.49 3.15812 16.4568 3.06944 16.4009C2.98076 16.345 2.90717 16.2682 2.85513 16.1772C2.80309 16.0862 2.7742 15.9838 2.771 15.879L2.727 14.456C2.72396 14.3694 2.70333 14.2843 2.66637 14.2059C2.62941 14.1275 2.57689 14.0575 2.512 14C0.956 12.608 0 10.592 0 8.26ZM5.546 6.801L3.196 10.529C2.971 10.887 3.41 11.29 3.747 11.035L6.272 9.119C6.35505 9.05592 6.45638 9.02161 6.56067 9.02125C6.66495 9.02089 6.76652 9.0545 6.85 9.117L8.719 10.519C8.85161 10.6184 9.00338 10.6893 9.16475 10.7272C9.32612 10.7651 9.49359 10.7691 9.6566 10.7391C9.8196 10.709 9.97461 10.6455 10.1119 10.5525C10.2491 10.4596 10.3656 10.3392 10.454 10.199L12.804 6.471C13.03 6.113 12.59 5.71 12.253 5.965L9.728 7.881C9.64495 7.94408 9.54362 7.97839 9.43933 7.97875C9.33505 7.97911 9.23348 7.9455 9.15 7.883L7.281 6.48C7.14839 6.38056 6.99662 6.30966 6.83525 6.27179C6.67388 6.23391 6.50641 6.22988 6.3434 6.25995C6.1804 6.29001 6.02539 6.35352 5.88815 6.44647C5.75091 6.53942 5.63441 6.65979 5.546 6.8V6.801Z" fill="white"/>
</g>
<defs>
<clipPath id="clip0_61_978">
<rect width="16" height="16" fill="white" transform="translate(0 0.5)"/>
</clipPath>
</defs>
</svg>
