<svg width="16" height="16" viewBox="0 0 16 16" fill="none" xmlns="http://www.w3.org/2000/svg">
<path d="M10.8959 5.74012L7.65947 10.2707C7.62227 10.3228 7.59945 10.3838 7.59329 10.4475C7.58714 10.5112 7.59787 10.5754 7.62441 10.6337L9.87293 15.5602C10.075 16.0181 10.7345 15.9876 10.8923 15.5123L15.5327 1.5911C15.5647 1.4948 15.5692 1.3915 15.5459 1.29276C15.5225 1.19401 15.4721 1.10371 15.4004 1.03196C15.3286 0.960207 15.2383 0.909833 15.1396 0.886472C15.0408 0.863111 14.9375 0.867686 14.8412 0.899682L0.920077 5.54007C0.44521 5.69836 0.41479 6.35781 0.872126 6.55941L5.79919 8.80742C5.85744 8.83395 5.92166 8.84469 5.98538 8.83853C6.0491 8.83238 6.11007 8.80955 6.16217 8.77236L10.6927 5.53594C10.7208 5.51559 10.7553 5.50591 10.7898 5.50865C10.8244 5.51139 10.8569 5.52638 10.8814 5.55091C10.906 5.57544 10.9209 5.60791 10.9237 5.6425C10.9264 5.67708 10.9168 5.71151 10.8964 5.73961L10.8959 5.74012Z" fill="white"/>
</svg>
