<svg width="202" height="40" viewBox="0 0 202 40" fill="none" xmlns="http://www.w3.org/2000/svg">
<g clip-path="url(#clip0_196_1626)">
<path d="M8.60023 17.38C13.3202 16.75 18.2402 17.28 22.6402 19.14C23.0002 19.31 23.3802 19.43 23.7202 19.64C23.7802 19.78 23.9202 19.85 24.0302 19.94C24.7302 20.47 25.2602 21.25 25.4302 22.11C25.6602 23.16 25.4402 24.26 25.0702 25.26C24.6402 26.41 24.0002 27.48 23.2602 28.47H23.1902C20.9702 26.74 18.3602 25.57 15.6602 24.83C12.6202 24.01 9.44024 23.74 6.30023 23.99C4.52024 24.13 2.74023 24.44 1.02023 24.94C0.670234 25.02 0.330234 25.17 -0.00976562 25.24C-0.00976562 25.22 0.0102344 25.17 0.0102344 25.15C0.0402344 25.13 0.100234 25.1 0.130234 25.08C2.29023 22.14 4.96023 19.58 7.94023 17.47C8.17023 17.47 8.38023 17.41 8.60023 17.38Z" fill="#2482BC"/>
<path d="M8.9893 8.55C11.2793 6.01 13.1293 3.1 14.5593 0C15.7693 3.03 17.5293 5.81 19.6193 8.32C20.8193 9.75 22.1093 11.11 23.5293 12.33C20.7693 12.32 18.0193 12.78 15.4093 13.66C12.7493 14.54 10.2493 15.87 7.9593 17.46C4.9893 19.58 2.3093 22.13 0.149297 25.07C0.119297 25.09 0.0592969 25.12 0.0292969 25.14C0.0492969 23.76 0.289297 22.39 0.689297 21.08C1.2993 19.07 2.2493 17.18 3.3793 15.41C4.3693 13.87 5.4793 12.41 6.6993 11.04C7.4193 10.19 8.2393 9.41 8.9893 8.55Z" fill="#3DBFF7"/>
<path d="M23.7203 19.65C25.8703 20.78 27.5303 22.8 28.2003 25.14C28.6103 26.54 28.6803 28.03 28.3903 29.46C28.1303 30.68 27.6403 31.84 27.0603 32.94C25.7303 35.16 23.8003 37.01 21.5203 38.25C19.1603 39.54 16.4303 40.15 13.7503 39.99C11.0403 39.85 8.39031 38.92 6.18031 37.36C4.39031 36.1 2.89031 34.43 1.82031 32.52C4.50031 33.81 7.50031 34.43 10.4803 34.31C13.3403 34.21 16.1603 33.42 18.6603 32.04C20.3703 31.1 21.9103 29.89 23.2603 28.49C24.0003 27.51 24.6403 26.44 25.0703 25.28C25.4403 24.28 25.6503 23.19 25.4303 22.13C25.2503 21.26 24.7303 20.49 24.0303 19.96C23.9203 19.86 23.7803 19.78 23.7203 19.65Z" fill="#3DBFF7"/>
</g>
<path d="M44.958 29.18C43.758 29.18 42.762 29.012 41.97 28.676C41.178 28.328 40.578 27.878 40.17 27.326C39.762 26.774 39.546 26.186 39.522 25.562C39.522 25.466 39.558 25.382 39.63 25.31C39.714 25.226 39.81 25.184 39.918 25.184H42.186C42.354 25.184 42.48 25.214 42.564 25.274C42.66 25.334 42.744 25.412 42.816 25.508C42.912 25.688 43.044 25.862 43.212 26.03C43.392 26.198 43.62 26.336 43.896 26.444C44.184 26.54 44.538 26.588 44.958 26.588C45.654 26.588 46.176 26.48 46.524 26.264C46.884 26.048 47.064 25.754 47.064 25.382C47.064 25.118 46.968 24.902 46.776 24.734C46.584 24.554 46.272 24.398 45.84 24.266C45.42 24.122 44.856 23.978 44.148 23.834C43.236 23.642 42.456 23.396 41.808 23.096C41.172 22.784 40.686 22.382 40.35 21.89C40.014 21.386 39.846 20.762 39.846 20.018C39.846 19.286 40.05 18.632 40.458 18.056C40.878 17.48 41.46 17.03 42.204 16.706C42.948 16.382 43.83 16.22 44.85 16.22C45.678 16.22 46.404 16.328 47.028 16.544C47.664 16.76 48.198 17.048 48.63 17.408C49.062 17.768 49.386 18.152 49.602 18.56C49.83 18.956 49.95 19.346 49.962 19.73C49.962 19.826 49.926 19.916 49.854 20C49.782 20.072 49.692 20.108 49.584 20.108H47.208C47.076 20.108 46.962 20.084 46.866 20.036C46.77 19.988 46.686 19.91 46.614 19.802C46.542 19.538 46.35 19.31 46.038 19.118C45.738 18.914 45.342 18.812 44.85 18.812C44.322 18.812 43.908 18.908 43.608 19.1C43.32 19.28 43.176 19.562 43.176 19.946C43.176 20.186 43.254 20.396 43.41 20.576C43.578 20.756 43.848 20.912 44.22 21.044C44.604 21.176 45.126 21.314 45.786 21.458C46.878 21.662 47.76 21.92 48.432 22.232C49.104 22.532 49.596 22.928 49.908 23.42C50.22 23.9 50.376 24.506 50.376 25.238C50.376 26.054 50.142 26.762 49.674 27.362C49.218 27.95 48.582 28.4 47.766 28.712C46.95 29.024 46.014 29.18 44.958 29.18ZM52.628 29C52.496 29 52.388 28.958 52.304 28.874C52.22 28.79 52.178 28.682 52.178 28.55V16.85C52.178 16.718 52.22 16.61 52.304 16.526C52.388 16.442 52.496 16.4 52.628 16.4H57.668C58.664 16.4 59.528 16.556 60.26 16.868C61.004 17.168 61.58 17.624 61.988 18.236C62.408 18.848 62.618 19.622 62.618 20.558C62.618 21.482 62.408 22.244 61.988 22.844C61.58 23.444 61.004 23.888 60.26 24.176C59.528 24.464 58.664 24.608 57.668 24.608H55.526V28.55C55.526 28.682 55.478 28.79 55.382 28.874C55.298 28.958 55.19 29 55.058 29H52.628ZM55.472 22.124H57.578C58.094 22.124 58.502 21.992 58.802 21.728C59.114 21.464 59.27 21.062 59.27 20.522C59.27 20.066 59.138 19.682 58.874 19.37C58.61 19.058 58.178 18.902 57.578 18.902H55.472V22.124ZM64.792 29C64.66 29 64.552 28.958 64.468 28.874C64.384 28.79 64.342 28.682 64.342 28.55V16.85C64.342 16.718 64.384 16.61 64.468 16.526C64.552 16.442 64.66 16.4 64.792 16.4H73.198C73.33 16.4 73.438 16.442 73.522 16.526C73.606 16.61 73.648 16.718 73.648 16.85V18.542C73.648 18.674 73.606 18.782 73.522 18.866C73.438 18.95 73.33 18.992 73.198 18.992H67.456V21.422H72.802C72.934 21.422 73.042 21.47 73.126 21.566C73.21 21.65 73.252 21.758 73.252 21.89V23.456C73.252 23.576 73.21 23.684 73.126 23.78C73.042 23.864 72.934 23.906 72.802 23.906H67.456V26.408H73.342C73.474 26.408 73.582 26.45 73.666 26.534C73.75 26.618 73.792 26.726 73.792 26.858V28.55C73.792 28.682 73.75 28.79 73.666 28.874C73.582 28.958 73.474 29 73.342 29H64.792ZM80.1202 29C79.9882 29 79.8802 28.958 79.7962 28.874C79.7122 28.79 79.6702 28.682 79.6702 28.55V16.85C79.6702 16.718 79.7122 16.61 79.7962 16.526C79.8802 16.442 79.9882 16.4 80.1202 16.4H85.1602C86.1562 16.4 87.0202 16.556 87.7522 16.868C88.4962 17.168 89.0722 17.624 89.4802 18.236C89.9002 18.848 90.1102 19.622 90.1102 20.558C90.1102 21.482 89.9002 22.244 89.4802 22.844C89.0722 23.444 88.4962 23.888 87.7522 24.176C87.0202 24.464 86.1562 24.608 85.1602 24.608H83.0182V28.55C83.0182 28.682 82.9702 28.79 82.8742 28.874C82.7902 28.958 82.6822 29 82.5502 29H80.1202ZM82.9642 22.124H85.0702C85.5862 22.124 85.9942 21.992 86.2942 21.728C86.6062 21.464 86.7622 21.062 86.7622 20.522C86.7622 20.066 86.6302 19.682 86.3662 19.37C86.1022 19.058 85.6702 18.902 85.0702 18.902H82.9642V22.124ZM92.0862 29C91.9542 29 91.8462 28.958 91.7622 28.874C91.6782 28.79 91.6362 28.682 91.6362 28.55V20.09C91.6362 19.97 91.6782 19.868 91.7622 19.784C91.8462 19.688 91.9542 19.64 92.0862 19.64H94.1562C94.2882 19.64 94.3962 19.688 94.4802 19.784C94.5642 19.868 94.6062 19.97 94.6062 20.09V20.81C94.9302 20.438 95.3142 20.15 95.7582 19.946C96.2142 19.742 96.7242 19.64 97.2882 19.64H98.0802C98.2002 19.64 98.3022 19.682 98.3862 19.766C98.4822 19.85 98.5302 19.958 98.5302 20.09V21.944C98.5302 22.064 98.4822 22.172 98.3862 22.268C98.3022 22.352 98.2002 22.394 98.0802 22.394H96.3342C95.8422 22.394 95.4582 22.532 95.1822 22.808C94.9182 23.072 94.7862 23.45 94.7862 23.942V28.55C94.7862 28.682 94.7382 28.79 94.6422 28.874C94.5582 28.958 94.4502 29 94.3182 29H92.0862ZM104.168 29.18C103.16 29.18 102.308 29.018 101.612 28.694C100.928 28.37 100.4 27.908 100.028 27.308C99.6677 26.696 99.4637 25.97 99.4157 25.13C99.4037 24.89 99.3977 24.62 99.3977 24.32C99.3977 24.008 99.4037 23.738 99.4157 23.51C99.4637 22.658 99.6797 21.932 100.064 21.332C100.448 20.732 100.982 20.27 101.666 19.946C102.362 19.622 103.196 19.46 104.168 19.46C105.152 19.46 105.986 19.622 106.67 19.946C107.366 20.27 107.906 20.732 108.29 21.332C108.674 21.932 108.89 22.658 108.938 23.51C108.95 23.738 108.956 24.008 108.956 24.32C108.956 24.62 108.95 24.89 108.938 25.13C108.89 25.97 108.68 26.696 108.308 27.308C107.948 27.908 107.42 28.37 106.724 28.694C106.04 29.018 105.188 29.18 104.168 29.18ZM104.168 26.984C104.708 26.984 105.098 26.822 105.338 26.498C105.59 26.174 105.734 25.688 105.77 25.04C105.782 24.86 105.788 24.62 105.788 24.32C105.788 24.02 105.782 23.78 105.77 23.6C105.734 22.964 105.59 22.484 105.338 22.16C105.098 21.824 104.708 21.656 104.168 21.656C103.64 21.656 103.25 21.824 102.998 22.16C102.746 22.484 102.608 22.964 102.584 23.6C102.572 23.78 102.566 24.02 102.566 24.32C102.566 24.62 102.572 24.86 102.584 25.04C102.608 25.688 102.746 26.174 102.998 26.498C103.25 26.822 103.64 26.984 104.168 26.984ZM114.218 29.18C113.642 29.18 113.12 29.09 112.652 28.91C112.196 28.718 111.8 28.442 111.464 28.082C111.14 27.71 110.888 27.266 110.708 26.75C110.528 26.222 110.426 25.622 110.402 24.95C110.39 24.71 110.384 24.5 110.384 24.32C110.384 24.128 110.39 23.918 110.402 23.69C110.426 23.042 110.528 22.46 110.708 21.944C110.888 21.428 111.14 20.984 111.464 20.612C111.788 20.24 112.184 19.958 112.652 19.766C113.12 19.562 113.642 19.46 114.218 19.46C114.818 19.46 115.334 19.562 115.766 19.766C116.198 19.958 116.564 20.21 116.864 20.522V16.67C116.864 16.538 116.906 16.43 116.99 16.346C117.074 16.262 117.182 16.22 117.314 16.22H119.51C119.63 16.22 119.732 16.262 119.816 16.346C119.912 16.43 119.96 16.538 119.96 16.67V28.55C119.96 28.682 119.912 28.79 119.816 28.874C119.732 28.958 119.63 29 119.51 29H117.476C117.344 29 117.236 28.958 117.152 28.874C117.068 28.79 117.026 28.682 117.026 28.55V27.974C116.738 28.322 116.366 28.61 115.91 28.838C115.454 29.066 114.89 29.18 114.218 29.18ZM115.19 26.768C115.598 26.768 115.916 26.684 116.144 26.516C116.384 26.336 116.558 26.108 116.666 25.832C116.786 25.556 116.852 25.256 116.864 24.932C116.876 24.692 116.882 24.464 116.882 24.248C116.882 24.032 116.876 23.81 116.864 23.582C116.852 23.282 116.786 23.006 116.666 22.754C116.546 22.49 116.366 22.28 116.126 22.124C115.886 21.956 115.574 21.872 115.19 21.872C114.794 21.872 114.476 21.956 114.236 22.124C114.008 22.292 113.846 22.52 113.75 22.808C113.654 23.096 113.594 23.414 113.57 23.762C113.534 24.134 113.534 24.506 113.57 24.878C113.594 25.226 113.654 25.544 113.75 25.832C113.846 26.12 114.008 26.348 114.236 26.516C114.476 26.684 114.794 26.768 115.19 26.768ZM125.52 29.18C124.836 29.18 124.224 29.024 123.684 28.712C123.156 28.4 122.742 27.944 122.442 27.344C122.142 26.732 121.992 25.988 121.992 25.112V20.09C121.992 19.958 122.034 19.85 122.118 19.766C122.202 19.682 122.31 19.64 122.442 19.64H124.692C124.824 19.64 124.932 19.682 125.016 19.766C125.1 19.85 125.142 19.958 125.142 20.09V25.004C125.142 26.18 125.67 26.768 126.726 26.768C127.218 26.768 127.608 26.618 127.896 26.318C128.196 26.006 128.346 25.568 128.346 25.004V20.09C128.346 19.958 128.388 19.85 128.472 19.766C128.556 19.682 128.664 19.64 128.796 19.64H131.046C131.178 19.64 131.286 19.682 131.37 19.766C131.454 19.85 131.496 19.958 131.496 20.09V28.55C131.496 28.682 131.454 28.79 131.37 28.874C131.286 28.958 131.178 29 131.046 29H128.958C128.838 29 128.73 28.958 128.634 28.874C128.55 28.79 128.508 28.682 128.508 28.55V27.866C128.196 28.298 127.788 28.628 127.284 28.856C126.792 29.072 126.204 29.18 125.52 29.18ZM137.915 29.18C137.027 29.18 136.241 29.018 135.557 28.694C134.873 28.37 134.327 27.902 133.919 27.29C133.523 26.666 133.307 25.922 133.271 25.058C133.259 24.866 133.253 24.626 133.253 24.338C133.253 24.038 133.259 23.792 133.271 23.6C133.307 22.724 133.523 21.98 133.919 21.368C134.315 20.744 134.855 20.27 135.539 19.946C136.235 19.622 137.027 19.46 137.915 19.46C138.743 19.46 139.451 19.58 140.039 19.82C140.627 20.048 141.107 20.336 141.479 20.684C141.851 21.032 142.127 21.392 142.307 21.764C142.499 22.124 142.601 22.442 142.613 22.718C142.625 22.838 142.583 22.946 142.487 23.042C142.391 23.126 142.283 23.168 142.163 23.168H139.877C139.745 23.168 139.643 23.138 139.571 23.078C139.499 23.018 139.433 22.928 139.373 22.808C139.229 22.436 139.043 22.172 138.815 22.016C138.599 21.86 138.317 21.782 137.969 21.782C137.489 21.782 137.117 21.938 136.853 22.25C136.601 22.562 136.463 23.042 136.439 23.69C136.427 24.17 136.427 24.596 136.439 24.968C136.463 25.628 136.601 26.108 136.853 26.408C137.117 26.708 137.489 26.858 137.969 26.858C138.341 26.858 138.635 26.78 138.851 26.624C139.067 26.468 139.241 26.204 139.373 25.832C139.433 25.712 139.499 25.622 139.571 25.562C139.643 25.502 139.745 25.472 139.877 25.472H142.163C142.283 25.472 142.391 25.52 142.487 25.616C142.583 25.7 142.625 25.802 142.613 25.922C142.601 26.126 142.541 26.366 142.433 26.642C142.325 26.906 142.157 27.188 141.929 27.488C141.701 27.788 141.401 28.07 141.029 28.334C140.669 28.586 140.231 28.79 139.715 28.946C139.199 29.102 138.599 29.18 137.915 29.18ZM148.532 29.18C147.644 29.18 146.858 29.018 146.174 28.694C145.49 28.37 144.944 27.902 144.536 27.29C144.14 26.666 143.924 25.922 143.888 25.058C143.876 24.866 143.87 24.626 143.87 24.338C143.87 24.038 143.876 23.792 143.888 23.6C143.924 22.724 144.14 21.98 144.536 21.368C144.932 20.744 145.472 20.27 146.156 19.946C146.852 19.622 147.644 19.46 148.532 19.46C149.36 19.46 150.068 19.58 150.656 19.82C151.244 20.048 151.724 20.336 152.096 20.684C152.468 21.032 152.744 21.392 152.924 21.764C153.116 22.124 153.218 22.442 153.23 22.718C153.242 22.838 153.2 22.946 153.104 23.042C153.008 23.126 152.9 23.168 152.78 23.168H150.494C150.362 23.168 150.26 23.138 150.188 23.078C150.116 23.018 150.05 22.928 149.99 22.808C149.846 22.436 149.66 22.172 149.432 22.016C149.216 21.86 148.934 21.782 148.586 21.782C148.106 21.782 147.734 21.938 147.47 22.25C147.218 22.562 147.08 23.042 147.056 23.69C147.044 24.17 147.044 24.596 147.056 24.968C147.08 25.628 147.218 26.108 147.47 26.408C147.734 26.708 148.106 26.858 148.586 26.858C148.958 26.858 149.252 26.78 149.468 26.624C149.684 26.468 149.858 26.204 149.99 25.832C150.05 25.712 150.116 25.622 150.188 25.562C150.26 25.502 150.362 25.472 150.494 25.472H152.78C152.9 25.472 153.008 25.52 153.104 25.616C153.2 25.7 153.242 25.802 153.23 25.922C153.218 26.126 153.158 26.366 153.05 26.642C152.942 26.906 152.774 27.188 152.546 27.488C152.318 27.788 152.018 28.07 151.646 28.334C151.286 28.586 150.848 28.79 150.332 28.946C149.816 29.102 149.216 29.18 148.532 29.18ZM155.297 29C155.165 29 155.057 28.958 154.973 28.874C154.889 28.79 154.847 28.682 154.847 28.55V20.09C154.847 19.958 154.889 19.85 154.973 19.766C155.057 19.682 155.165 19.64 155.297 19.64H157.421C157.541 19.64 157.643 19.682 157.727 19.766C157.823 19.85 157.871 19.958 157.871 20.09V28.55C157.871 28.682 157.823 28.79 157.727 28.874C157.643 28.958 157.541 29 157.421 29H155.297ZM155.279 18.29C155.147 18.29 155.039 18.248 154.955 18.164C154.871 18.08 154.829 17.972 154.829 17.84V16.238C154.829 16.106 154.871 15.998 154.955 15.914C155.039 15.818 155.147 15.77 155.279 15.77H157.421C157.553 15.77 157.661 15.818 157.745 15.914C157.841 15.998 157.889 16.106 157.889 16.238V17.84C157.889 17.972 157.841 18.08 157.745 18.164C157.661 18.248 157.553 18.29 157.421 18.29H155.279ZM164.496 29.18C163.488 29.18 162.636 29.018 161.94 28.694C161.256 28.37 160.728 27.908 160.356 27.308C159.996 26.696 159.792 25.97 159.744 25.13C159.732 24.89 159.726 24.62 159.726 24.32C159.726 24.008 159.732 23.738 159.744 23.51C159.792 22.658 160.008 21.932 160.392 21.332C160.776 20.732 161.31 20.27 161.994 19.946C162.69 19.622 163.524 19.46 164.496 19.46C165.48 19.46 166.314 19.622 166.998 19.946C167.694 20.27 168.234 20.732 168.618 21.332C169.002 21.932 169.218 22.658 169.266 23.51C169.278 23.738 169.284 24.008 169.284 24.32C169.284 24.62 169.278 24.89 169.266 25.13C169.218 25.97 169.008 26.696 168.636 27.308C168.276 27.908 167.748 28.37 167.052 28.694C166.368 29.018 165.516 29.18 164.496 29.18ZM164.496 26.984C165.036 26.984 165.426 26.822 165.666 26.498C165.918 26.174 166.062 25.688 166.098 25.04C166.11 24.86 166.116 24.62 166.116 24.32C166.116 24.02 166.11 23.78 166.098 23.6C166.062 22.964 165.918 22.484 165.666 22.16C165.426 21.824 165.036 21.656 164.496 21.656C163.968 21.656 163.578 21.824 163.326 22.16C163.074 22.484 162.936 22.964 162.912 23.6C162.9 23.78 162.894 24.02 162.894 24.32C162.894 24.62 162.9 24.86 162.912 25.04C162.936 25.688 163.074 26.174 163.326 26.498C163.578 26.822 163.968 26.984 164.496 26.984ZM171.504 29C171.372 29 171.264 28.958 171.18 28.874C171.096 28.79 171.054 28.682 171.054 28.55V20.09C171.054 19.958 171.096 19.85 171.18 19.766C171.264 19.682 171.372 19.64 171.504 19.64H173.574C173.706 19.64 173.814 19.682 173.898 19.766C173.982 19.85 174.024 19.958 174.024 20.09V20.774C174.336 20.402 174.744 20.09 175.248 19.838C175.752 19.586 176.346 19.46 177.03 19.46C177.726 19.46 178.338 19.616 178.866 19.928C179.406 20.24 179.826 20.702 180.126 21.314C180.438 21.914 180.594 22.652 180.594 23.528V28.55C180.594 28.682 180.546 28.79 180.45 28.874C180.366 28.958 180.264 29 180.144 29H177.876C177.756 29 177.648 28.958 177.552 28.874C177.468 28.79 177.426 28.682 177.426 28.55V23.636C177.426 23.072 177.288 22.64 177.012 22.34C176.748 22.028 176.352 21.872 175.824 21.872C175.332 21.872 174.936 22.028 174.636 22.34C174.348 22.64 174.204 23.072 174.204 23.636V28.55C174.204 28.682 174.156 28.79 174.06 28.874C173.976 28.958 173.874 29 173.754 29H171.504ZM186.923 29.18C185.507 29.18 184.379 28.796 183.539 28.028C182.699 27.26 182.261 26.12 182.225 24.608C182.225 24.524 182.225 24.416 182.225 24.284C182.225 24.152 182.225 24.05 182.225 23.978C182.261 23.03 182.471 22.22 182.855 21.548C183.251 20.864 183.791 20.348 184.475 20C185.171 19.64 185.981 19.46 186.905 19.46C187.961 19.46 188.831 19.67 189.515 20.09C190.211 20.51 190.733 21.08 191.081 21.8C191.429 22.52 191.603 23.342 191.603 24.266V24.698C191.603 24.83 191.555 24.938 191.459 25.022C191.375 25.106 191.273 25.148 191.153 25.148H185.393C185.393 25.16 185.393 25.178 185.393 25.202C185.393 25.226 185.393 25.25 185.393 25.274C185.405 25.622 185.465 25.94 185.573 26.228C185.681 26.516 185.849 26.744 186.077 26.912C186.305 27.08 186.581 27.164 186.905 27.164C187.145 27.164 187.343 27.128 187.499 27.056C187.667 26.972 187.805 26.882 187.913 26.786C188.021 26.678 188.105 26.588 188.165 26.516C188.273 26.396 188.357 26.324 188.417 26.3C188.489 26.264 188.597 26.246 188.741 26.246H190.973C191.093 26.246 191.189 26.282 191.261 26.354C191.345 26.414 191.381 26.504 191.369 26.624C191.357 26.828 191.255 27.074 191.063 27.362C190.871 27.65 190.589 27.938 190.217 28.226C189.857 28.502 189.401 28.73 188.849 28.91C188.297 29.09 187.655 29.18 186.923 29.18ZM185.393 23.366H188.435V23.33C188.435 22.946 188.375 22.61 188.255 22.322C188.147 22.034 187.973 21.812 187.733 21.656C187.505 21.5 187.229 21.422 186.905 21.422C186.581 21.422 186.305 21.5 186.077 21.656C185.861 21.812 185.693 22.034 185.573 22.322C185.453 22.61 185.393 22.946 185.393 23.33V23.366ZM197.143 29.18C196.363 29.18 195.697 29.096 195.145 28.928C194.605 28.748 194.161 28.532 193.813 28.28C193.477 28.028 193.225 27.77 193.057 27.506C192.889 27.23 192.799 26.996 192.787 26.804C192.775 26.672 192.817 26.564 192.913 26.48C193.009 26.384 193.111 26.336 193.219 26.336H195.271C195.307 26.336 195.337 26.342 195.361 26.354C195.385 26.366 195.421 26.39 195.469 26.426C195.625 26.51 195.781 26.618 195.937 26.75C196.093 26.87 196.273 26.978 196.477 27.074C196.681 27.17 196.927 27.218 197.215 27.218C197.551 27.218 197.833 27.152 198.061 27.02C198.289 26.888 198.403 26.69 198.403 26.426C198.403 26.234 198.349 26.078 198.241 25.958C198.133 25.826 197.911 25.7 197.575 25.58C197.251 25.46 196.759 25.34 196.099 25.22C195.475 25.076 194.929 24.89 194.461 24.662C193.993 24.422 193.633 24.116 193.381 23.744C193.129 23.36 193.003 22.898 193.003 22.358C193.003 21.878 193.159 21.416 193.471 20.972C193.783 20.528 194.239 20.168 194.839 19.892C195.439 19.604 196.177 19.46 197.053 19.46C197.749 19.46 198.349 19.544 198.853 19.712C199.369 19.868 199.801 20.072 200.149 20.324C200.509 20.576 200.779 20.834 200.959 21.098C201.139 21.362 201.235 21.602 201.247 21.818C201.259 21.938 201.223 22.046 201.139 22.142C201.055 22.226 200.959 22.268 200.851 22.268H198.979C198.931 22.268 198.883 22.262 198.835 22.25C198.787 22.226 198.745 22.202 198.709 22.178C198.565 22.106 198.421 22.01 198.277 21.89C198.133 21.77 197.965 21.662 197.773 21.566C197.581 21.47 197.341 21.422 197.053 21.422C196.729 21.422 196.477 21.494 196.297 21.638C196.117 21.782 196.027 21.968 196.027 22.196C196.027 22.352 196.075 22.496 196.171 22.628C196.279 22.76 196.489 22.88 196.801 22.988C197.125 23.096 197.623 23.216 198.295 23.348C199.123 23.48 199.783 23.696 200.275 23.996C200.767 24.284 201.115 24.626 201.319 25.022C201.523 25.406 201.625 25.814 201.625 26.246C201.625 26.822 201.451 27.332 201.103 27.776C200.767 28.22 200.263 28.568 199.591 28.82C198.919 29.06 198.103 29.18 197.143 29.18Z" fill="#00359C"/>
<defs>
<clipPath id="clip0_196_1626">
<rect width="28.57" height="40" fill="white"/>
</clipPath>
</defs>
</svg>
